<?xml version="1.0" encoding="UTF-8"?>
<svg id="Layer_2" data-name="Layer 2" xmlns="http://www.w3.org/2000/svg" viewBox="0 0 339.17 265.89">
  <defs>
    <style>
      .cls-1 {
        stroke: #4fcbba;
        stroke-miterlimit: 10;
        stroke-width: .76px;
      }

      .cls-1, .cls-2 {
        fill: #4fcbba;
      }

      .cls-3 {
        fill: #414042;
      }
    </style>
  </defs>
  <g id="Layer_1-2" data-name="Layer 1">
    <g>
      <path class="cls-3" d="M0,0h15.16v90.72H0V0Z"/>
      <path class="cls-3" d="M111.98,90.72h-15.29L51.58,26.18v64.54h-15.16V0h15.29l45.23,64.54V0h15.04v90.72Z"/>
      <path class="cls-3" d="M178.59,15.16h-15.16v75.56h-15.04V15.16h-15.16V0h45.36v15.16Z"/>
      <path class="cls-3" d="M213.98,15.16v22.68h37.72v15.04h-37.72v22.68h45.36v15.16h-60.52V0h60.52v15.16h-45.36Z"/>
      <path class="cls-3" d="M305.08,52.88h-12.31v37.84h-15.16V0h30.2s30.33,0,30.33,26.44c0,14.65-9.33,21.13-17.5,24.11l18.53,40.18h-16.72l-17.37-37.84ZM292.77,37.84h15.04s15.16,0,15.16-11.41-15.16-11.27-15.16-11.27h-15.04v22.68Z"/>
      <path class="cls-3" d="M67.91,156.26c0,45.36-52.75,45.36-52.75,45.36H0v-90.59h15.16s52.75,0,52.75,45.23ZM52.88,156.26c0-30.2-37.72-30.2-37.72-30.2v60.4s37.72,0,37.72-30.2Z"/>
      <path class="cls-3" d="M104.59,126.07v22.68h37.72v15.04h-37.72v22.68h45.36v15.16h-60.52v-90.72h60.52v15.16h-45.36Z"/>
      <path class="cls-3" d="M238.21,177.65l10.63,10.76c-8.17,8.17-19.44,13.22-32.01,13.22-25.01,0-45.36-20.35-45.36-45.36s20.35-45.36,45.36-45.36c12.57,0,23.85,5.05,32.01,13.35l-10.63,10.63c-5.44-5.45-13.09-8.81-21.38-8.81-16.72,0-30.2,13.48-30.2,30.2s13.48,30.2,30.2,30.2c8.29,0,15.94-3.37,21.38-8.81Z"/>
      <polygon class="cls-2" points="328.17 201.62 273.72 201.62 273.72 186.59 333.6 186.59 328.17 201.62"/>
      <g>
        <path class="cls-1" d="M58.16,242.63c6.63,0,11.7,4.91,11.7,11.38s-5.11,11.38-11.8,11.38h-9.1v-22.75h9.2ZM51.56,262.91h6.63c5.07,0,9.04-3.8,9.04-8.87s-4.03-8.9-9.13-8.9h-6.53v17.78Z"/>
        <path class="cls-1" d="M79.64,245.13v7.47h11.47v2.51h-11.47v7.8h13.26v2.47h-15.86v-22.75h15.44v2.5h-12.84Z"/>
        <path class="cls-1" d="M118.68,245.88l-1.56,1.98c-1.76-1.79-4.22-2.86-6.73-2.86-5.14,0-9.27,3.97-9.27,8.97s4.13,8.97,9.27,8.97c2.5,0,4.94-1.04,6.73-2.73l1.59,1.79c-2.24,2.11-5.3,3.51-8.45,3.51-6.57,0-11.77-5.11-11.77-11.54s5.27-11.41,11.86-11.41c3.12,0,6.14,1.27,8.32,3.32Z"/>
        <path class="cls-1" d="M146.96,254c0,6.4-5.27,11.51-11.89,11.51s-11.93-5.11-11.93-11.51,5.27-11.44,11.93-11.44,11.89,5.04,11.89,11.44ZM125.77,254c0,5,4.22,9,9.3,9s9.23-4,9.23-9-4.16-8.97-9.23-8.97-9.3,3.96-9.3,8.97Z"/>
        <path class="cls-1" d="M164.32,258.13c-.49.03-1.01.06-1.53.06h-6.05v7.19h-2.6v-22.75h8.65c5.69,0,8.97,2.79,8.97,7.64,0,3.77-1.82,6.3-5.11,7.38l5.33,7.74h-2.96l-4.71-7.25ZM162.79,255.69c4.13,0,6.47-1.82,6.47-5.36s-2.34-5.2-6.47-5.2h-6.05v10.56h6.05Z"/>
        <path class="cls-1" d="M182.07,259.62l-2.54,5.76h-2.76l10.2-22.75h2.7l10.17,22.75h-2.83l-2.54-5.76h-12.42ZM188.25,245.58l-5.07,11.54h10.21l-5.14-11.54Z"/>
        <path class="cls-1" d="M223.35,245.88l-1.56,1.98c-1.76-1.79-4.23-2.86-6.73-2.86-5.14,0-9.26,3.97-9.26,8.97s4.13,8.97,9.26,8.97c2.5,0,4.94-1.04,6.73-2.73l1.59,1.79c-2.24,2.11-5.3,3.51-8.45,3.51-6.57,0-11.76-5.11-11.76-11.54s5.27-11.41,11.86-11.41c3.12,0,6.14,1.27,8.32,3.32Z"/>
        <path class="cls-1" d="M230.5,265.38v-22.75h2.6v22.75h-2.6Z"/>
        <path class="cls-1" d="M264.11,254c0,6.4-5.27,11.51-11.89,11.51s-11.93-5.11-11.93-11.51,5.27-11.44,11.93-11.44,11.89,5.04,11.89,11.44ZM242.92,254c0,5,4.22,9,9.3,9s9.23-4,9.23-9-4.16-8.97-9.23-8.97-9.3,3.96-9.3,8.97ZM252.8,239.8h-2.44l3.9-4.42,2.57,1.23-4.03,3.19Z"/>
        <path class="cls-1" d="M287.55,265.38l-13.65-18.27v18.27h-2.6v-22.75h2.7l13.65,18.3v-18.3h2.57v22.75h-2.66Z"/>
      </g>
      <path class="cls-3" d="M304.05,110.9c-18.53,0-33.7,15.16-33.7,33.7s15.16,33.69,33.7,33.69,33.7-15.16,33.7-33.69-15.17-33.7-33.7-33.7ZM304.05,163.26c-10.37,0-18.66-8.29-18.66-18.66s8.29-18.67,18.66-18.67,18.66,8.29,18.66,18.67-8.29,18.66-18.66,18.66Z"/>
    </g>
  </g>
</svg>